<svg width="119" height="40" viewBox="0 0 119 40" fill="none" xmlns="http://www.w3.org/2000/svg">
<g clip-path="url(#clip0_394_1623)">
<path d="M53.4521 39.9366V36.1748H54.2109V39.9366H53.4521Z" fill="white"/>
<path d="M54.9943 39.9366V36.1748H55.7318L57.2704 38.6874V36.1748H57.9762V39.9366H57.214L55.6966 37.484V39.9366H54.9908H54.9943Z" fill="white"/>
<path d="M60.1923 36.1748H60.9475V38.5568C60.9475 38.8673 60.9192 39.1073 60.8663 39.2767C60.7922 39.4955 60.6581 39.6719 60.4675 39.8025C60.277 39.9331 60.0194 40.0001 59.7018 40.0001C59.3312 40.0001 59.0454 39.8978 58.8443 39.6896C58.6431 39.4814 58.5443 39.1779 58.5408 38.7756L59.2571 38.6944C59.2642 38.9097 59.296 39.0614 59.3524 39.1497C59.4336 39.2838 59.5606 39.3508 59.7265 39.3508C59.8923 39.3508 60.0159 39.3014 60.0864 39.2061C60.157 39.1108 60.1923 38.9097 60.1923 38.6062V36.1783V36.1748Z" fill="white"/>
<path d="M61.7874 39.9366V36.1748H62.5461V39.9366H61.7874Z" fill="white"/>
<path d="M64.1694 39.937V36.8139H63.0542V36.1787H66.0432V36.8139H64.9281V39.937H64.1694Z" fill="white"/>
<path d="M66.5831 39.9366V36.1748H69.3709V36.81H67.3418V37.6428H69.2298V38.278H67.3418V39.3014H69.4415V39.9366H66.5796H66.5831Z" fill="white"/>
<path d="M72.5469 38.5533L73.2844 38.7862C73.1715 39.1956 72.9845 39.5026 72.7198 39.7002C72.4552 39.8978 72.1234 40.0002 71.7211 40.0002C71.22 40.0002 70.8107 39.8308 70.4896 39.4885C70.1684 39.1462 70.0061 38.6804 70.0061 38.0875C70.0061 37.4629 70.1684 36.9759 70.4896 36.6301C70.8107 36.2842 71.2377 36.1113 71.7635 36.1113C72.2222 36.1113 72.5963 36.249 72.8857 36.5207C73.0551 36.683 73.1856 36.9124 73.2703 37.2123L72.5187 37.3923C72.4728 37.1982 72.381 37.043 72.2399 36.93C72.0987 36.8171 71.9258 36.7606 71.7247 36.7606C71.4459 36.7606 71.22 36.8595 71.0471 37.0606C70.8742 37.2617 70.786 37.5864 70.786 38.0346C70.786 38.511 70.8707 38.8497 71.0436 39.0509C71.2165 39.252 71.4353 39.3544 71.7106 39.3544C71.9117 39.3544 72.0846 39.2909 72.2328 39.1603C72.381 39.0297 72.4834 38.8286 72.5469 38.5533Z" fill="white"/>
<path d="M73.9903 39.9366V36.1748H74.749V37.6534H76.2382V36.1748H76.9969V39.9366H76.2382V38.2921H74.749V39.9366H73.9903Z" fill="white"/>
<path d="M81.7538 38.5533L82.4914 38.7862C82.3785 39.1956 82.1914 39.5026 81.9268 39.7002C81.6621 39.8978 81.3304 40.0002 80.9281 40.0002C80.427 40.0002 80.0176 39.8308 79.6965 39.4885C79.3754 39.1462 79.213 38.6804 79.213 38.0875C79.213 37.4629 79.3754 36.9759 79.6965 36.6301C80.0176 36.2842 80.4446 36.1113 80.9704 36.1113C81.4292 36.1113 81.8033 36.249 82.0926 36.5207C82.262 36.683 82.3926 36.9124 82.4773 37.2123L81.7256 37.3923C81.6797 37.1982 81.588 37.043 81.4468 36.93C81.3057 36.8171 81.1328 36.7606 80.9316 36.7606C80.6528 36.7606 80.427 36.8595 80.2541 37.0606C80.0811 37.2617 79.9929 37.5864 79.9929 38.0346C79.9929 38.511 80.0776 38.8497 80.2505 39.0509C80.4235 39.252 80.6422 39.3544 80.9175 39.3544C81.1186 39.3544 81.2916 39.2909 81.4398 39.1603C81.588 39.0297 81.6903 38.8286 81.7538 38.5533Z" fill="white"/>
<path d="M83.0419 38.0769C83.0419 37.6923 83.0983 37.3711 83.2148 37.1135C83.2995 36.923 83.4159 36.7501 83.5641 36.5983C83.7124 36.4466 83.8747 36.3336 84.0511 36.2595C84.284 36.1607 84.5558 36.1113 84.8628 36.1113C85.4168 36.1113 85.8615 36.2842 86.1932 36.6265C86.5249 36.9688 86.6907 37.4488 86.6907 38.0593C86.6907 38.6698 86.5249 39.1426 86.1967 39.4849C85.8685 39.8273 85.4239 40.0002 84.8734 40.0002C84.3229 40.0002 83.8676 39.8308 83.5394 39.4885C83.2113 39.1462 83.0454 38.6768 83.0454 38.0805L83.0419 38.0769ZM83.8218 38.0522C83.8218 38.4792 83.9206 38.8003 84.1182 39.0191C84.3158 39.2379 84.5628 39.3473 84.8663 39.3473C85.1698 39.3473 85.4168 39.2379 85.6109 39.0191C85.805 38.8003 85.9038 38.4757 85.9038 38.0381C85.9038 37.6005 85.8085 37.2864 85.6215 37.0747C85.4345 36.863 85.1804 36.7571 84.8698 36.7571C84.5593 36.7571 84.3052 36.863 84.1147 37.0782C83.9241 37.2935 83.8288 37.6182 83.8288 38.0487L83.8218 38.0522Z" fill="white"/>
<path d="M87.3367 39.9366V36.1748H88.9353C89.3376 36.1748 89.6304 36.2101 89.8104 36.2771C89.9904 36.3442 90.1386 36.4642 90.248 36.6371C90.3574 36.81 90.4139 37.0076 90.4139 37.2299C90.4139 37.5123 90.3292 37.7452 90.1633 37.9287C89.9975 38.1122 89.7504 38.2286 89.4187 38.278C89.5846 38.3733 89.7187 38.4792 89.8245 38.5921C89.9304 38.705 90.0751 38.9097 90.2586 39.2026L90.7173 39.9366H89.8104L89.2599 39.1179C89.0658 38.825 88.9317 38.6415 88.8611 38.5639C88.7906 38.4862 88.7129 38.4368 88.6318 38.4086C88.5506 38.3804 88.4236 38.3662 88.2507 38.3662H88.0954V39.9366H87.3367ZM88.0954 37.7663H88.6565C89.0199 37.7663 89.2493 37.7522 89.3376 37.7205C89.4258 37.6887 89.4999 37.6358 89.5493 37.5617C89.5987 37.4876 89.6269 37.3923 89.6269 37.2793C89.6269 37.1523 89.5916 37.05 89.5246 36.9723C89.4575 36.8947 89.3623 36.8453 89.2387 36.8241C89.1788 36.8171 88.9917 36.81 88.6847 36.81H88.0919V37.7628L88.0954 37.7663Z" fill="white"/>
<path d="M91.1796 39.9366V36.1748H92.397C92.8593 36.1748 93.1593 36.1924 93.3005 36.2313C93.5157 36.2877 93.6957 36.4112 93.8404 36.5983C93.9851 36.7853 94.0592 37.0323 94.0592 37.3323C94.0592 37.5617 94.0168 37.7557 93.9321 37.9145C93.8474 38.0733 93.7416 38.1969 93.611 38.2851C93.4804 38.3733 93.3499 38.4333 93.2158 38.4651C93.0358 38.5003 92.7711 38.518 92.4288 38.518H91.9348V39.9366H91.1761H91.1796ZM91.9418 36.81V37.8757H92.3582C92.6582 37.8757 92.8593 37.8546 92.9582 37.8157C93.057 37.7769 93.1381 37.7134 93.1946 37.6322C93.251 37.5511 93.2793 37.4523 93.2793 37.3393C93.2793 37.2017 93.2405 37.0888 93.1593 37.0006C93.0781 36.9123 92.9758 36.8559 92.8523 36.8347C92.7605 36.8171 92.5806 36.81 92.3053 36.81H91.9383H91.9418Z" fill="white"/>
<path d="M94.5848 38.0769C94.5848 37.6923 94.6413 37.3711 94.7578 37.1135C94.8424 36.923 94.9589 36.7501 95.1071 36.5983C95.2553 36.4466 95.4177 36.3336 95.5941 36.2595C95.827 36.1607 96.0987 36.1113 96.4057 36.1113C96.9598 36.1113 97.4044 36.2842 97.7361 36.6265C98.0679 36.9688 98.2337 37.4488 98.2337 38.0593C98.2337 38.6698 98.0679 39.1426 97.7397 39.4849C97.4115 39.8273 96.9668 40.0002 96.4163 40.0002C95.8658 40.0002 95.4106 39.8308 95.0824 39.4885C94.7542 39.1462 94.5884 38.6768 94.5884 38.0805L94.5848 38.0769ZM95.3647 38.0522C95.3647 38.4792 95.4635 38.8003 95.6611 39.0191C95.8588 39.2379 96.1058 39.3473 96.4093 39.3473C96.7128 39.3473 96.9598 39.2379 97.1539 39.0191C97.348 38.8003 97.4468 38.4757 97.4468 38.0381C97.4468 37.6005 97.3515 37.2864 97.1645 37.0747C96.9774 36.863 96.7233 36.7571 96.4128 36.7571C96.1023 36.7571 95.8482 36.863 95.6576 37.0782C95.4671 37.2935 95.3718 37.6182 95.3718 38.0487L95.3647 38.0522Z" fill="white"/>
<path d="M98.8796 39.9366V36.1748H100.478C100.881 36.1748 101.173 36.2101 101.353 36.2771C101.533 36.3442 101.682 36.4642 101.791 36.6371C101.9 36.81 101.957 37.0076 101.957 37.2299C101.957 37.5123 101.872 37.7452 101.706 37.9287C101.54 38.1122 101.293 38.2286 100.962 38.278C101.128 38.3733 101.262 38.4792 101.368 38.5921C101.473 38.705 101.618 38.9097 101.802 39.2026L102.26 39.9366H101.353L100.803 39.1179C100.609 38.825 100.475 38.6415 100.404 38.5639C100.334 38.4862 100.256 38.4368 100.175 38.4086C100.094 38.3804 99.9665 38.3662 99.7936 38.3662H99.6383V39.9366H98.8796ZM99.6383 37.7663H100.199C100.563 37.7663 100.792 37.7522 100.881 37.7205C100.969 37.6887 101.043 37.6358 101.092 37.5617C101.142 37.4876 101.17 37.3923 101.17 37.2793C101.17 37.1523 101.135 37.05 101.068 36.9723C101 36.8947 100.905 36.8453 100.782 36.8241C100.722 36.8171 100.535 36.81 100.228 36.81H99.6348V37.7628L99.6383 37.7663Z" fill="white"/>
<path d="M106.117 39.9366H105.292L104.963 39.0826H103.46L103.15 39.9366H102.345L103.809 36.1748H104.614L106.121 39.9366H106.117ZM104.716 38.4474L104.198 37.0535L103.689 38.4474H104.716Z" fill="white"/>
<path d="M107.028 39.937V36.8139H105.913V36.1787H108.902V36.8139H107.786V39.937H107.028Z" fill="white"/>
<path d="M109.421 39.9366V36.1748H110.179V39.9366H109.421Z" fill="white"/>
<path d="M110.8 38.0769C110.8 37.6923 110.857 37.3711 110.973 37.1135C111.058 36.923 111.174 36.7501 111.323 36.5983C111.471 36.4466 111.633 36.3336 111.809 36.2595C112.042 36.1607 112.314 36.1113 112.621 36.1113C113.175 36.1113 113.62 36.2842 113.952 36.6265C114.283 36.9688 114.449 37.4488 114.449 38.0593C114.449 38.6698 114.283 39.1426 113.955 39.4849C113.627 39.8273 113.182 40.0002 112.632 40.0002C112.081 40.0002 111.626 39.8308 111.298 39.4885C110.97 39.1462 110.804 38.6768 110.804 38.0805L110.8 38.0769ZM111.584 38.0522C111.584 38.4792 111.682 38.8003 111.88 39.0191C112.078 39.2379 112.325 39.3473 112.628 39.3473C112.932 39.3473 113.179 39.2379 113.373 39.0191C113.567 38.8003 113.666 38.4757 113.666 38.0381C113.666 37.6005 113.57 37.2864 113.383 37.0747C113.196 36.863 112.942 36.7571 112.632 36.7571C112.321 36.7571 112.067 36.863 111.877 37.0782C111.686 37.2935 111.591 37.6182 111.591 38.0487L111.584 38.0522Z" fill="white"/>
<path d="M115.102 39.9366V36.1748H115.839L117.378 38.6874V36.1748H118.084V39.9366H117.322L115.804 37.484V39.9366H115.098H115.102Z" fill="white"/>
<path d="M0 16.0996H8.01059C8.01059 16.0996 9.16453 16.0926 9.93383 17.0348C10.5761 17.8252 10.4914 18.4322 10.4914 18.4322V32.456H5.31804C5.31804 32.456 4.73225 32.4807 4.06528 31.9196C3.34539 31.3091 3.41244 30.6104 3.41244 30.6104V18.524C3.41244 18.524 3.38774 17.8711 2.66784 17.1936C1.94795 16.516 0 16.1031 0 16.1031L0 16.0996Z" fill="white"/>
<path d="M11.9348 32.4554H13.3781V22.5816L24.9458 32.1872C24.9458 32.1872 25.7927 32.9565 26.8408 32.8048C27.536 32.706 27.4936 31.9437 27.4936 31.9437V16.1025H26.435V24.8612C26.435 24.8612 26.4597 25.2953 26.3009 25.3553C25.9797 25.4788 25.3763 24.9742 25.3763 24.9742L15.206 16.5401C15.206 16.5401 14.7296 16.1025 13.6039 16.1025C12.1147 16.1025 12.0371 17.0836 12.0371 17.0836L11.9348 32.459V32.4554Z" fill="white"/>
<path d="M27.7547 16.0992H39.4601C39.4601 16.0992 38.4543 16.1557 37.9038 16.7274C37.1734 17.4826 37.2263 18.0472 37.2263 18.0472V36.2774C37.2263 36.2774 37.2192 37.2902 36.4817 37.9678C35.4971 38.8782 34.2161 38.8782 34.2161 38.8782H26.9078C26.9078 38.8782 28.8381 38.8676 29.5827 37.8654C30.2779 36.9303 30.2567 36.2069 30.2567 36.2069V18.0437C30.2567 18.0437 30.3097 17.2814 29.4804 16.805C28.7852 16.4062 27.7547 16.0957 27.7547 16.0957V16.0992Z" fill="white"/>
<path d="M39.4565 16.0988L46.1861 16.0918C46.1861 16.0918 47.7776 15.9612 48.5752 17.0552C49.1892 17.888 49.1398 18.4879 49.1398 18.4879V32.6246H43.8535C43.8535 32.6246 43.4124 32.6564 42.7807 32.1659C41.9691 31.5307 42.0608 30.8002 42.0608 30.8002V18.1703C42.0608 18.1703 42.0997 17.3128 41.4539 16.854C40.5611 16.2223 39.46 16.0988 39.46 16.0988H39.4565Z" fill="white"/>
<path d="M28.0406 3.22541C27.8253 3.77944 27.3948 3.85708 27.1266 3.85708C26.7067 3.85708 26.3326 3.58888 26.1491 3.21129C25.5316 1.60212 24.3988 0.508161 23.0896 0.508161C21.7804 0.508161 20.5911 1.66564 19.9841 3.34539C19.7407 4.00176 19.4266 4.01235 19.4266 4.01235C19.0066 4.07234 18.8055 3.75121 18.7314 3.58888C18.4138 2.6255 17.9162 1.99382 17.3516 1.99382C16.3953 1.99382 15.6224 3.77239 15.6224 5.96736C15.6224 8.16233 16.3953 9.93736 17.3516 9.93736C17.9303 9.93736 18.4385 9.28099 18.7526 8.28231C18.7526 8.28231 18.8937 7.80591 19.3137 7.80238C19.3137 7.80238 19.7124 7.72475 19.9912 8.55756C20.5982 10.2338 21.7486 11.3842 23.0896 11.3842C24.4306 11.3842 25.4857 10.3361 26.1138 8.77988H26.1209C26.2867 8.35289 26.6538 7.98588 27.1055 7.98588C27.3454 7.98588 27.6983 8.01764 27.9594 8.5258C28.8523 10.6326 30.7473 11.8712 33.1822 11.8712C35.6171 11.8712 37.7204 10.4773 38.5849 8.31054C38.7402 7.94354 39.0472 7.77415 39.2872 7.77415C39.7424 7.77415 40.1165 8.24349 40.2823 8.67049H40.2859C40.914 10.2267 42.0256 11.2748 43.3101 11.2748C44.5946 11.2748 45.8051 10.1244 46.4085 8.4517C46.6026 7.98588 46.7296 7.69299 47.0649 7.69299C47.3613 7.69299 47.5342 7.83061 47.6471 8.17644C47.9612 9.17512 48.4694 9.83149 49.0481 9.83149C50.0044 9.83149 50.7808 8.05646 50.7808 5.86149C50.7808 3.66652 50.0044 1.88796 49.0481 1.88796C48.4835 1.88796 47.9859 2.51963 47.6683 3.48302C47.5977 3.72651 47.453 3.92413 47.079 3.92413C46.7049 3.92413 46.5849 3.67005 46.412 3.23952C45.8086 1.55624 44.6546 0.402294 43.3101 0.402294C41.9656 0.402294 40.974 1.35157 40.2506 3.10543C40.0706 3.55359 39.7495 3.74768 39.3295 3.74768C38.7967 3.74768 38.5779 3.42655 38.1438 2.74195C37.1028 1.10454 35.3031 0 33.221 0C31.3154 0 29.6498 0.921041 28.5841 2.32907C28.5841 2.32907 28.1712 2.95015 28.0406 3.22541Z" fill="white"/>
<path d="M52.764 16.1553V19.4301H58.2973V32.6034H62.2532V19.4301H67.7759V16.1553H52.764Z" fill="white"/>
<path d="M73.8985 29.3357V25.6162H82.2549V22.352H73.8985V19.4301H82.8795V16.1553H69.9426V32.6034H83.1971V29.3357H73.8985Z" fill="white"/>
<path d="M113.987 16.1553V22.3944H107.402V16.1553H103.446V32.6034H107.402V25.6692H113.987V32.6034H117.943V16.1553H113.987Z" fill="white"/>
<path d="M97.1823 26.5512C96.4165 27.931 94.945 28.8662 93.2582 28.8662C90.7844 28.8662 88.7694 26.8512 88.7694 24.3774C88.7694 21.9037 90.7844 19.8887 93.2582 19.8887C94.638 19.8887 95.8731 20.5168 96.6953 21.4978H101.173C99.9913 18.2618 96.8929 15.9434 93.2546 15.9434C88.6036 15.9434 84.8206 19.7263 84.8206 24.3774C84.8206 29.0285 88.6036 32.8115 93.2546 32.8115C97.1541 32.8115 100.432 30.1507 101.396 26.5512H97.1788H97.1823Z" fill="white"/>
</g>
<defs>
<clipPath id="clip0_394_1623">
<rect width="118.087" height="40" fill="white"/>
</clipPath>
</defs>
</svg>
